<svg width="40" height="40" viewBox="0 0 40 40" fill="none" xmlns="http://www.w3.org/2000/svg">
<path d="M21.6667 23.3334C16.0667 23.3334 14.2333 25.5834 13.6333 27.0667C15.4167 27.8334 16.6667 29.6 16.6667 31.6667C16.6667 32.9928 16.1399 34.2646 15.2022 35.2022C14.2645 36.1399 12.9928 36.6667 11.6667 36.6667C10.3406 36.6667 9.06883 36.1399 8.13114 35.2022C7.19346 34.2646 6.66668 32.9928 6.66668 31.6667C6.66668 29.4834 8.05001 27.6334 10 26.95V13.05C9.02339 12.7074 8.1777 12.0691 7.58036 11.2239C6.98303 10.3786 6.66368 9.36837 6.66668 8.33337C6.66668 7.00729 7.19346 5.73552 8.13114 4.79784C9.06883 3.86016 10.3406 3.33337 11.6667 3.33337C12.9928 3.33337 14.2645 3.86016 15.2022 4.79784C16.1399 5.73552 16.6667 7.00729 16.6667 8.33337C16.6667 10.5167 15.2833 12.3667 13.3333 13.05V21.8667C14.8 20.7834 16.9333 20 20 20C24.45 20 25.9333 17.7667 26.4167 16.2834C25.5049 15.9035 24.7257 15.2626 24.1771 14.4412C23.6285 13.6197 23.3349 12.6545 23.3333 11.6667C23.3333 10.3406 23.8601 9.06886 24.7978 8.13117C25.7355 7.19349 27.0073 6.66671 28.3333 6.66671C29.6594 6.66671 30.9312 7.19349 31.8689 8.13117C32.8066 9.06886 33.3333 10.3406 33.3333 11.6667C33.3333 13.9 31.8667 15.8334 29.85 16.4334C29.4167 18.8167 27.8 23.3334 21.6667 23.3334ZM11.6667 30C11.2246 30 10.8007 30.1756 10.4882 30.4882C10.1756 30.8008 10 31.2247 10 31.6667C10 32.1087 10.1756 32.5327 10.4882 32.8452C10.8007 33.1578 11.2246 33.3334 11.6667 33.3334C12.1087 33.3334 12.5326 33.1578 12.8452 32.8452C13.1577 32.5327 13.3333 32.1087 13.3333 31.6667C13.3333 31.2247 13.1577 30.8008 12.8452 30.4882C12.5326 30.1756 12.1087 30 11.6667 30ZM11.6667 6.66671C11.2246 6.66671 10.8007 6.8423 10.4882 7.15486C10.1756 7.46742 10 7.89135 10 8.33337C10 8.7754 10.1756 9.19932 10.4882 9.51188C10.8007 9.82445 11.2246 10 11.6667 10C12.1087 10 12.5326 9.82445 12.8452 9.51188C13.1577 9.19932 13.3333 8.7754 13.3333 8.33337C13.3333 7.89135 13.1577 7.46742 12.8452 7.15486C12.5326 6.8423 12.1087 6.66671 11.6667 6.66671M28.3333 10C27.8913 10 27.4674 10.1756 27.1548 10.4882C26.8423 10.8008 26.6667 11.2247 26.6667 11.6667C26.6667 12.1087 26.8423 12.5327 27.1548 12.8452C27.4674 13.1578 27.8913 13.3334 28.3333 13.3334C28.7754 13.3334 29.1993 13.1578 29.5119 12.8452C29.8244 12.5327 30 12.1087 30 11.6667C30 11.2247 29.8244 10.8008 29.5119 10.4882C29.1993 10.1756 28.7754 10 28.3333 10Z" fill="current"/>
</svg>
