<svg width="48" height="36" viewBox="0 0 48 36" fill="current" xmlns="http://www.w3.org/2000/svg">
<mask id="path-1-outside-1_3_1467" maskUnits="userSpaceOnUse" x="8" y="15.85" width="32" height="20" fill="black">
<rect fill="white" x="8" y="15.85" width="32" height="20"/>
<path d="M11.0939 17.6C9.93745 17.6 8.98842 18.5401 9.11045 19.6901C9.51421 23.4948 11.0122 27.0592 13.3934 29.7976C16.2064 33.0326 20.0218 34.85 24 34.85C27.9782 34.85 31.7936 33.0326 34.6066 29.7976C36.9878 27.0592 38.4858 23.4948 38.8895 19.6901C39.0116 18.5401 38.0625 17.6 36.9061 17.6C35.7497 17.6 34.8283 18.5425 34.659 19.6865C34.2855 22.21 33.2403 24.5581 31.6454 26.3923C29.6177 28.7241 26.8676 30.0341 24 30.0341C21.1324 30.0341 18.3823 28.7241 16.3546 26.3923C14.7597 24.5581 13.7145 22.21 13.341 19.6865C13.1717 18.5425 12.2503 17.6 11.0939 17.6Z"/>
</mask>
<path d="M11.0939 17.6C9.93745 17.6 8.98842 18.5401 9.11045 19.6901C9.51421 23.4948 11.0122 27.0592 13.3934 29.7976C16.2064 33.0326 20.0218 34.85 24 34.85C27.9782 34.85 31.7936 33.0326 34.6066 29.7976C36.9878 27.0592 38.4858 23.4948 38.8895 19.6901C39.0116 18.5401 38.0625 17.6 36.9061 17.6C35.7497 17.6 34.8283 18.5425 34.659 19.6865C34.2855 22.21 33.2403 24.5581 31.6454 26.3923C29.6177 28.7241 26.8676 30.0341 24 30.0341C21.1324 30.0341 18.3823 28.7241 16.3546 26.3923C14.7597 24.5581 13.7145 22.21 13.341 19.6865C13.1717 18.5425 12.2503 17.6 11.0939 17.6Z" stroke="current" stroke-width="2" mask="url(#path-1-outside-1_3_1467)"/>
<mask id="path-2-outside-2_3_1467" maskUnits="userSpaceOnUse" x="0" y="2.80002" width="22" height="14" fill="black">
<rect fill="white" y="2.80002" width="22" height="14"/>
<path d="M19.6041 15.3C20.375 15.3 21.0077 14.6733 20.9264 13.9067C20.6572 11.3701 19.6586 8.99391 18.0711 7.16829C16.1957 5.01162 13.6522 3.80002 11 3.80002C8.34784 3.80002 5.8043 5.01162 3.92893 7.16829C2.34144 8.99391 1.34281 11.3701 1.07364 13.9067C0.992281 14.6733 1.62497 15.3 2.3959 15.3C3.16684 15.3 3.7811 14.6717 3.89398 13.9091C4.14299 12.2267 4.83978 10.6613 5.90304 9.43851C7.25484 7.88394 9.08827 7.0106 11 7.0106C12.9117 7.0106 14.7452 7.88394 16.097 9.43851C17.1602 10.6613 17.857 12.2267 18.106 13.9091C18.2189 14.6717 18.8332 15.3 19.6041 15.3Z"/>
</mask>
<path d="M19.6041 15.3C20.375 15.3 21.0077 14.6733 20.9264 13.9067C20.6572 11.3701 19.6586 8.99391 18.0711 7.16829C16.1957 5.01162 13.6522 3.80002 11 3.80002C8.34784 3.80002 5.8043 5.01162 3.92893 7.16829C2.34144 8.99391 1.34281 11.3701 1.07364 13.9067C0.992281 14.6733 1.62497 15.3 2.3959 15.3C3.16684 15.3 3.7811 14.6717 3.89398 13.9091C4.14299 12.2267 4.83978 10.6613 5.90304 9.43851C7.25484 7.88394 9.08827 7.0106 11 7.0106C12.9117 7.0106 14.7452 7.88394 16.097 9.43851C17.1602 10.6613 17.857 12.2267 18.106 13.9091C18.2189 14.6717 18.8332 15.3 19.6041 15.3Z" stroke="current" stroke-width="2" mask="url(#path-2-outside-2_3_1467)"/>
<mask id="path-3-outside-3_3_1467" maskUnits="userSpaceOnUse" x="26" y="2.80002" width="22" height="14" fill="black">
<rect fill="white" x="26" y="2.80002" width="22" height="14"/>
<path d="M45.6041 15.3C46.375 15.3 47.0077 14.6733 46.9264 13.9067C46.6572 11.3701 45.6586 8.99391 44.0711 7.16829C42.1957 5.01162 39.6522 3.80002 37 3.80002C34.3478 3.80002 31.8043 5.01162 29.9289 7.16829C28.3414 8.99391 27.3428 11.3701 27.0736 13.9067C26.9923 14.6733 27.625 15.3 28.3959 15.3C29.1668 15.3 29.7811 14.6717 29.894 13.9091C30.143 12.2267 30.8398 10.6613 31.903 9.43851C33.2548 7.88394 35.0883 7.0106 37 7.0106C38.9117 7.0106 40.7452 7.88394 42.097 9.43851C43.1602 10.6613 43.857 12.2267 44.106 13.9091C44.2189 14.6717 44.8332 15.3 45.6041 15.3Z"/>
</mask>
<path d="M45.6041 15.3C46.375 15.3 47.0077 14.6733 46.9264 13.9067C46.6572 11.3701 45.6586 8.99391 44.0711 7.16829C42.1957 5.01162 39.6522 3.80002 37 3.80002C34.3478 3.80002 31.8043 5.01162 29.9289 7.16829C28.3414 8.99391 27.3428 11.3701 27.0736 13.9067C26.9923 14.6733 27.625 15.3 28.3959 15.3C29.1668 15.3 29.7811 14.6717 29.894 13.9091C30.143 12.2267 30.8398 10.6613 31.903 9.43851C33.2548 7.88394 35.0883 7.0106 37 7.0106C38.9117 7.0106 40.7452 7.88394 42.097 9.43851C43.1602 10.6613 43.857 12.2267 44.106 13.9091C44.2189 14.6717 44.8332 15.3 45.6041 15.3Z" stroke="current" stroke-width="2" mask="url(#path-3-outside-3_3_1467)"/>
</svg>
