<svg width="46" height="31" viewBox="0 0 46 31" fill="none" xmlns="http://www.w3.org/2000/svg">
<path d="M10.0939 13.6C8.93745 13.6 7.98842 14.5401 8.11045 15.6901C8.51421 19.4948 10.0122 23.0592 12.3934 25.7976C15.2064 29.0326 19.0218 30.85 23 30.85C26.9782 30.85 30.7936 29.0326 33.6066 25.7976C35.9878 23.0592 37.4858 19.4948 37.8895 15.6901C38.0116 14.5401 37.0625 13.6 35.9061 13.6V13.6C34.7497 13.6 33.8283 14.5425 33.659 15.6865C33.2855 18.21 32.2403 20.5581 30.6454 22.3923C28.6177 24.7241 25.8676 26.0341 23 26.0341C20.1324 26.0341 17.3823 24.7241 15.3546 22.3923C13.7597 20.5581 12.7145 18.21 12.341 15.6865C12.1717 14.5425 11.2503 13.6 10.0939 13.6V13.6Z" fill="current"/>
<path d="M18.6041 11.5C19.375 11.5 20.0077 10.8733 19.9264 10.1066C19.6572 7.57012 18.6586 5.19389 17.0711 3.36827C15.1957 1.2116 12.6522 2.30268e-07 10 0C7.34784 -2.30268e-07 4.8043 1.2116 2.92893 3.36827C1.34144 5.19389 0.34281 7.57012 0.0736354 10.1066C-0.00771935 10.8733 0.624967 11.5 1.3959 11.5V11.5C2.16684 11.5 2.7811 10.8717 2.89398 10.109C3.14299 8.42666 3.83978 6.86124 4.90304 5.63849C6.25484 4.08393 8.08827 3.21058 10 3.21058C11.9117 3.21058 13.7452 4.08393 15.097 5.63849C16.1602 6.86125 16.857 8.42666 17.106 10.109C17.2189 10.8717 17.8332 11.5 18.6041 11.5V11.5Z" fill="current"/>
<path d="M44.6041 11.5C45.375 11.5 46.0077 10.8733 45.9264 10.1066C45.6572 7.57012 44.6586 5.19389 43.0711 3.36827C41.1957 1.2116 38.6522 2.30268e-07 36 0C33.3478 -2.30268e-07 30.8043 1.2116 28.9289 3.36827C27.3414 5.19389 26.3428 7.57012 26.0736 10.1066C25.9923 10.8733 26.625 11.5 27.3959 11.5V11.5C28.1668 11.5 28.7811 10.8717 28.894 10.109C29.143 8.42666 29.8398 6.86124 30.903 5.63849C32.2548 4.08393 34.0883 3.21058 36 3.21058C37.9117 3.21058 39.7452 4.08393 41.097 5.63849C42.1602 6.86125 42.857 8.42666 43.106 10.109C43.2189 10.8717 43.8332 11.5 44.6041 11.5V11.5Z" fill="current"/>
</svg>
