<svg width="48" height="49" viewBox="0 0 48 49" fill="none" xmlns="http://www.w3.org/2000/svg">
<mask id="path-1-outside-1_3_1481" maskUnits="userSpaceOnUse" x="8" y="14" width="32" height="17" fill="black">
<rect fill="white" x="8" y="14" width="32" height="17"/>
<path d="M36.9061 30C38.0625 30 39.015 29.058 38.8541 27.9128C38.4036 24.7058 36.923 21.7098 34.6066 19.3934C31.7936 16.5804 27.9782 15 24 15C20.0218 15 16.2064 16.5804 13.3934 19.3934C11.077 21.7098 9.59643 24.7058 9.14586 27.9128C8.98497 29.058 9.93745 30 11.0939 30C12.2503 30 13.1672 29.0539 13.3898 27.9191C13.8003 25.8262 14.8244 23.8847 16.3546 22.3546C18.3823 20.3269 21.1324 19.1877 24 19.1877C26.8676 19.1877 29.6177 20.3269 31.6454 22.3546C33.1756 23.8847 34.1997 25.8262 34.6102 27.9191C34.8328 29.0539 35.7497 30 36.9061 30Z"/>
</mask>
<path d="M36.9061 30C38.0625 30 39.015 29.058 38.8541 27.9128C38.4036 24.7058 36.923 21.7098 34.6066 19.3934C31.7936 16.5804 27.9782 15 24 15C20.0218 15 16.2064 16.5804 13.3934 19.3934C11.077 21.7098 9.59643 24.7058 9.14586 27.9128C8.98497 29.058 9.93745 30 11.0939 30C12.2503 30 13.1672 29.0539 13.3898 27.9191C13.8003 25.8262 14.8244 23.8847 16.3546 22.3546C18.3823 20.3269 21.1324 19.1877 24 19.1877C26.8676 19.1877 29.6177 20.3269 31.6454 22.3546C33.1756 23.8847 34.1997 25.8262 34.6102 27.9191C34.8328 29.0539 35.7497 30 36.9061 30Z" stroke="#8338EC" stroke-width="2" mask="url(#path-1-outside-1_3_1481)"/>
<mask id="path-2-outside-2_3_1481" maskUnits="userSpaceOnUse" x="8" y="32" width="32" height="17" fill="black">
<rect fill="white" x="8" y="32" width="32" height="17"/>
<path d="M11.0939 33C9.93745 33 8.98497 33.942 9.14586 35.0872C9.59643 38.2942 11.077 41.2902 13.3934 43.6066C16.2064 46.4196 20.0218 48 24 48C27.9782 48 31.7936 46.4196 34.6066 43.6066C36.923 41.2902 38.4036 38.2942 38.8541 35.0872C39.015 33.942 38.0625 33 36.9061 33C35.7497 33 34.8328 33.9461 34.6102 35.0809C34.1997 37.1738 33.1756 39.1153 31.6454 40.6454C29.6177 42.6731 26.8676 43.8123 24 43.8123C21.1324 43.8123 18.3823 42.6731 16.3546 40.6454C14.8244 39.1153 13.8003 37.1738 13.3898 35.0809C13.1672 33.9461 12.2503 33 11.0939 33Z"/>
</mask>
<path d="M11.0939 33C9.93745 33 8.98497 33.942 9.14586 35.0872C9.59643 38.2942 11.077 41.2902 13.3934 43.6066C16.2064 46.4196 20.0218 48 24 48C27.9782 48 31.7936 46.4196 34.6066 43.6066C36.923 41.2902 38.4036 38.2942 38.8541 35.0872C39.015 33.942 38.0625 33 36.9061 33C35.7497 33 34.8328 33.9461 34.6102 35.0809C34.1997 37.1738 33.1756 39.1153 31.6454 40.6454C29.6177 42.6731 26.8676 43.8123 24 43.8123C21.1324 43.8123 18.3823 42.6731 16.3546 40.6454C14.8244 39.1153 13.8003 37.1738 13.3898 35.0809C13.1672 33.9461 12.2503 33 11.0939 33Z" stroke="#8338EC" stroke-width="2" mask="url(#path-2-outside-2_3_1481)"/>
<mask id="path-3-outside-3_3_1481" maskUnits="userSpaceOnUse" x="0" y="0" width="22" height="12" fill="black">
<rect fill="white" width="22" height="12"/>
<path d="M19.6041 11C20.375 11 21.01 10.372 20.9028 9.60854C20.6024 7.47055 19.6153 5.47321 18.0711 3.92893C16.1957 2.05357 13.6522 1 11 1C8.34784 1 5.8043 2.05357 3.92893 3.92893C2.38466 5.47321 1.39762 7.47055 1.09724 9.60854C0.989979 10.372 1.62497 11 2.3959 11C3.16684 11 3.77815 10.3693 3.92653 9.61275C4.20019 8.21746 4.88296 6.92312 5.90304 5.90304C7.25484 4.55124 9.08827 3.79181 11 3.79181C12.9117 3.79181 14.7452 4.55124 16.097 5.90304C17.117 6.92312 17.7998 8.21746 18.0735 9.61275C18.2219 10.3693 18.8332 11 19.6041 11Z"/>
</mask>
<path d="M19.6041 11C20.375 11 21.01 10.372 20.9028 9.60854C20.6024 7.47055 19.6153 5.47321 18.0711 3.92893C16.1957 2.05357 13.6522 1 11 1C8.34784 1 5.8043 2.05357 3.92893 3.92893C2.38466 5.47321 1.39762 7.47055 1.09724 9.60854C0.989979 10.372 1.62497 11 2.3959 11C3.16684 11 3.77815 10.3693 3.92653 9.61275C4.20019 8.21746 4.88296 6.92312 5.90304 5.90304C7.25484 4.55124 9.08827 3.79181 11 3.79181C12.9117 3.79181 14.7452 4.55124 16.097 5.90304C17.117 6.92312 17.7998 8.21746 18.0735 9.61275C18.2219 10.3693 18.8332 11 19.6041 11Z" stroke="#8338EC" stroke-width="2" mask="url(#path-3-outside-3_3_1481)"/>
<mask id="path-4-outside-4_3_1481" maskUnits="userSpaceOnUse" x="26" y="0" width="22" height="12" fill="black">
<rect fill="white" x="26" width="22" height="12"/>
<path d="M45.6041 11C46.375 11 47.01 10.372 46.9028 9.60854C46.6024 7.47055 45.6153 5.47321 44.0711 3.92893C42.1957 2.05357 39.6522 1 37 1C34.3478 1 31.8043 2.05357 29.9289 3.92893C28.3847 5.47321 27.3976 7.47055 27.0972 9.60854C26.99 10.372 27.625 11 28.3959 11C29.1668 11 29.7781 10.3693 29.9265 9.61275C30.2002 8.21746 30.883 6.92312 31.903 5.90304C33.2548 4.55124 35.0883 3.79181 37 3.79181C38.9117 3.79181 40.7452 4.55124 42.097 5.90304C43.117 6.92312 43.7998 8.21746 44.0735 9.61275C44.2219 10.3693 44.8332 11 45.6041 11Z"/>
</mask>
<path d="M45.6041 11C46.375 11 47.01 10.372 46.9028 9.60854C46.6024 7.47055 45.6153 5.47321 44.0711 3.92893C42.1957 2.05357 39.6522 1 37 1C34.3478 1 31.8043 2.05357 29.9289 3.92893C28.3847 5.47321 27.3976 7.47055 27.0972 9.60854C26.99 10.372 27.625 11 28.3959 11C29.1668 11 29.7781 10.3693 29.9265 9.61275C30.2002 8.21746 30.883 6.92312 31.903 5.90304C33.2548 4.55124 35.0883 3.79181 37 3.79181C38.9117 3.79181 40.7452 4.55124 42.097 5.90304C43.117 6.92312 43.7998 8.21746 44.0735 9.61275C44.2219 10.3693 44.8332 11 45.6041 11Z" stroke="#8338EC" stroke-width="2" mask="url(#path-4-outside-4_3_1481)"/>
</svg>
