<svg width="48" height="36" viewBox="0 0 48 36" fill="none" xmlns="http://www.w3.org/2000/svg">
<path d="M15.3959 24C14.625 24 13.9923 24.6267 14.0736 25.3934C14.3428 27.9299 15.3414 30.3061 16.9289 32.1317C18.8043 34.2884 21.3478 35.5 24 35.5C26.6522 35.5 29.1957 34.2884 31.0711 32.1317C32.6586 30.3061 33.6572 27.9299 33.9264 25.3934C34.0077 24.6267 33.375 24 32.6041 24V24C31.8332 24 31.2189 24.6283 31.106 25.391C30.857 27.0733 30.1602 28.6388 29.097 29.8615C27.7452 31.4161 25.9117 32.2894 24 32.2894C22.0883 32.2894 20.2548 31.4161 18.903 29.8615C17.8398 28.6388 17.143 27.0733 16.894 25.391C16.7811 24.6283 16.1668 24 15.3959 24V24Z" fill="current"/>
<path d="M32.6041 23.5C33.375 23.5 34.0077 22.8733 33.9264 22.1066C33.6572 19.5701 32.6586 17.1939 31.0711 15.3683C29.1957 13.2116 26.6522 12 24 12C21.3478 12 18.8043 13.2116 16.9289 15.3683C15.3414 17.1939 14.3428 19.5701 14.0736 22.1066C13.9923 22.8733 14.625 23.5 15.3959 23.5V23.5C16.1668 23.5 16.7811 22.8717 16.894 22.109C17.143 20.4267 17.8398 18.8612 18.903 17.6385C20.2548 16.0839 22.0883 15.2106 24 15.2106C25.9117 15.2106 27.7452 16.0839 29.097 17.6385C30.1602 18.8612 30.857 20.4267 31.106 22.109C31.2189 22.8717 31.8332 23.5 32.6041 23.5V23.5Z" fill="current"/>
<path d="M40.2396 20.0911C40.8711 20.5333 41.7488 20.3828 42.1219 19.7082C43.3563 17.476 43.9012 14.9567 43.648 12.5507C43.3488 9.70839 41.9602 7.25698 39.7877 5.73577C37.6151 4.21455 34.8366 3.74812 32.0634 4.43909C29.7159 5.024 27.5349 6.3977 25.8595 8.32111C25.3532 8.90243 25.5119 9.77871 26.1435 10.2209V10.2209C26.775 10.6631 27.6385 10.5007 28.1684 9.94076C29.3374 8.70546 30.806 7.82281 32.3784 7.43105C34.3773 6.93298 36.3801 7.26919 37.9461 8.36572C39.5121 9.46224 40.5131 11.2293 40.7287 13.278C40.8984 14.8895 40.5712 16.5715 39.8103 18.0925C39.4653 18.7819 39.6081 19.6489 40.2396 20.0911V20.0911Z" fill="current"/>
<path d="M21.8357 10.2209C22.4672 9.77871 22.626 8.90243 22.1197 8.3211C20.4443 6.3977 18.2633 5.024 15.9158 4.43909C13.1425 3.74812 10.364 4.21454 8.19152 5.73576C6.01899 7.25698 4.6304 9.70838 4.3312 12.5507C4.07793 14.9567 4.62285 17.476 5.85725 19.7082C6.23033 20.3828 7.10807 20.5333 7.73959 20.0911V20.0911C8.3711 19.6489 8.51388 18.7819 8.16892 18.0924C7.40792 16.5715 7.08081 14.8895 7.25044 13.278C7.46611 11.2293 8.46703 9.46224 10.033 8.36571C11.599 7.26919 13.6018 6.93298 15.6008 7.43105C17.1731 7.82281 18.6418 8.70546 19.8107 9.94076C20.3406 10.5007 21.2042 10.6631 21.8357 10.2209V10.2209Z" fill="current"/>
</svg>
