<svg width="40" height="40" viewBox="0 0 40 40" fill="none" xmlns="http://www.w3.org/2000/svg">
<path d="M26.6667 36.7117V31.9283C26.7292 31.1336 26.6218 30.3347 26.3517 29.5847C26.0816 28.8346 25.6549 28.1507 25.1 27.5783C30.3334 26.995 35.8334 25.0117 35.8334 15.9117C35.8329 13.5847 34.9378 11.347 33.3333 9.66167C34.0931 7.62584 34.0394 5.37558 33.1833 3.37833C33.1833 3.37833 31.2167 2.795 26.6667 5.845C22.8467 4.8097 18.82 4.8097 15 5.845C10.45 2.795 8.48335 3.37833 8.48335 3.37833C7.62731 5.37558 7.57359 7.62584 8.33335 9.66167C6.7169 11.3595 5.82089 13.6174 5.83335 15.9617C5.83335 24.995 11.3333 26.9783 16.5667 27.6283C16.0183 28.195 15.5955 28.8707 15.3255 29.6115C15.0556 30.3524 14.9447 31.1418 15 31.9283V36.7117" stroke="current" stroke-width="4" stroke-linecap="round" stroke-linejoin="round"/>
<path d="M15 33.3783C10 35 5.83334 33.3783 3.33334 28.3783" stroke="current" stroke-width="4" stroke-linecap="round" stroke-linejoin="round"/>
</svg>
