<svg width="40" height="40" viewBox="0 0 40 40" fill="none" xmlns="http://www.w3.org/2000/svg">
<path d="M33.3333 36.6667H30.55C29.666 36.6667 28.8181 36.3155 28.193 35.6904C27.5679 35.0652 27.2167 34.2174 27.2167 33.3333V24.3833C27.2316 24.0323 27.1255 23.6869 26.9161 23.4047C26.7068 23.1226 26.4069 22.9209 26.0667 22.8333C25.8687 22.8032 25.6666 22.8159 25.474 22.8705C25.2813 22.9251 25.1027 23.0204 24.95 23.15C24.7929 23.2833 24.6668 23.4494 24.5804 23.6365C24.494 23.8236 24.4495 24.0273 24.45 24.2333V33.3333C24.45 34.2174 24.0988 35.0652 23.4737 35.6904C22.8486 36.3155 22.0007 36.6667 21.1167 36.6667H18.3333C17.4493 36.6667 16.6014 36.3155 15.9763 35.6904C15.3512 35.0652 15 34.2174 15 33.3333V24.2333C15 21.3602 16.1414 18.6047 18.173 16.573C20.2047 14.5414 22.9602 13.4 25.8333 13.4C28.7065 13.4 31.462 14.5414 33.4937 16.573C35.5253 18.6047 36.6667 21.3602 36.6667 24.2333V33.3333C36.6667 34.2174 36.3155 35.0652 35.6904 35.6904C35.0652 36.3155 34.2174 36.6667 33.3333 36.6667ZM25.8333 19.4833C26.0942 19.4669 26.3558 19.4669 26.6167 19.4833C27.7356 19.6986 28.7431 20.3009 29.4623 21.1847C30.1815 22.0685 30.5666 23.1773 30.55 24.3167V33.3333H33.3333V24.2333C33.3333 22.2442 32.5432 20.3366 31.1366 18.93C29.7301 17.5235 27.8225 16.7333 25.8333 16.7333C23.8442 16.7333 21.9366 17.5235 20.53 18.93C19.1235 20.3366 18.3333 22.2442 18.3333 24.2333V33.3333H21.1167V24.2333C21.1166 22.9793 21.6125 21.7762 22.4961 20.8863C23.3797 19.9965 24.5794 19.4921 25.8333 19.4833ZM10 36.6667H6.66668C5.78262 36.6667 4.93478 36.3155 4.30966 35.6904C3.68454 35.0652 3.33335 34.2174 3.33335 33.3333V16.6667C3.33335 15.7826 3.68454 14.9348 4.30966 14.3097C4.93478 13.6845 5.78262 13.3333 6.66668 13.3333H10C10.8841 13.3333 11.7319 13.6845 12.357 14.3097C12.9822 14.9348 13.3333 15.7826 13.3333 16.6667V33.3333C13.3333 34.2174 12.9822 35.0652 12.357 35.6904C11.7319 36.3155 10.8841 36.6667 10 36.6667ZM6.66668 16.6667V33.3333H10V16.6667H6.66668ZM8.33335 11.6667C7.34444 11.6667 6.37774 11.3734 5.55549 10.824C4.73325 10.2746 4.09239 9.49372 3.71395 8.58009C3.33551 7.66646 3.23649 6.66113 3.42942 5.69122C3.62235 4.72132 4.09855 3.8304 4.79781 3.13114C5.49707 2.43188 6.38799 1.95567 7.35789 1.76275C8.3278 1.56982 9.33313 1.66884 10.2468 2.04728C11.1604 2.42571 11.9413 3.06658 12.4907 3.88882C13.0401 4.71107 13.3333 5.67777 13.3333 6.66667C13.3333 7.99276 12.8066 9.26453 11.8689 10.2022C10.9312 11.1399 9.65943 11.6667 8.33335 11.6667ZM8.33335 5.00001C8.00371 5.00001 7.68148 5.09776 7.4074 5.28089C7.13331 5.46403 6.91969 5.72433 6.79355 6.02887C6.6674 6.33341 6.63439 6.66852 6.6987 6.99183C6.76301 7.31513 6.92175 7.6121 7.15483 7.84519C7.38792 8.07827 7.68489 8.23701 8.0082 8.30132C8.3315 8.36563 8.66661 8.33262 8.97115 8.20647C9.27569 8.08033 9.53599 7.86671 9.71913 7.59262C9.90226 7.31854 10 6.99631 10 6.66667C10 6.22465 9.82442 5.80072 9.51186 5.48816C9.1993 5.1756 8.77537 5.00001 8.33335 5.00001Z" fill="current"/>
</svg>
