<svg width="390" height="344" viewBox="0 0 390 344" fill="none" xmlns="http://www.w3.org/2000/svg">
<mask id="path-1-outside-1_3_291" maskUnits="userSpaceOnUse" x="278.602" y="173.286" width="89.4346" height="53.3394" fill="black">
<rect fill="white" x="278.602" y="173.286" width="89.4346" height="53.3394"/>
<path d="M361.118 216.282C364.297 215.92 366.62 213.032 365.819 209.935C363.576 201.26 358.568 193.488 351.475 187.846C342.861 180.994 331.878 177.845 320.942 179.091C310.007 180.337 300.014 185.876 293.162 194.49C287.52 201.583 284.389 210.282 284.154 219.239C284.071 222.437 286.984 224.729 290.163 224.366V224.366C293.342 224.004 295.566 221.116 295.822 217.927C296.295 212.045 298.503 206.388 302.229 201.702C307.168 195.493 314.371 191.501 322.254 190.602C330.137 189.704 338.053 191.974 344.262 196.913C348.948 200.64 352.371 205.656 354.155 211.281C355.122 214.331 357.939 216.644 361.118 216.282V216.282Z"/>
</mask>
<path d="M361.118 216.282C364.297 215.92 366.62 213.032 365.819 209.935C363.576 201.26 358.568 193.488 351.475 187.846C342.861 180.994 331.878 177.845 320.942 179.091C310.007 180.337 300.014 185.876 293.162 194.49C287.52 201.583 284.389 210.282 284.154 219.239C284.071 222.437 286.984 224.729 290.163 224.366V224.366C293.342 224.004 295.566 221.116 295.822 217.927C296.295 212.045 298.503 206.388 302.229 201.702C307.168 195.493 314.371 191.501 322.254 190.602C330.137 189.704 338.053 191.974 344.262 196.913C348.948 200.64 352.371 205.656 354.155 211.281C355.122 214.331 357.939 216.644 361.118 216.282V216.282Z" stroke="white" stroke-width="2" mask="url(#path-1-outside-1_3_291)"/>
<mask id="path-2-outside-2_3_291" maskUnits="userSpaceOnUse" x="262.641" y="33.1926" width="89.4346" height="53.3394" fill="black">
<rect fill="white" x="262.641" y="33.1926" width="89.4346" height="53.3394"/>
<path d="M345.156 76.1884C348.335 75.8262 350.658 72.9384 349.857 69.8409C347.614 61.1664 342.606 53.3944 335.513 47.7523C326.899 40.9006 315.917 37.7513 304.981 38.9973C294.045 40.2433 284.052 45.7824 277.201 54.3962C271.558 61.4892 268.427 70.1886 268.193 79.1454C268.109 82.3437 271.022 84.6349 274.201 84.2727V84.2727C277.38 83.9105 279.604 81.0226 279.861 77.8336C280.334 71.9518 282.541 66.294 286.268 61.6086C291.207 55.3997 298.41 51.407 306.292 50.5088C314.175 49.6107 322.092 51.8808 328.301 56.8196C332.986 60.5465 336.409 65.5627 338.193 71.1874C339.16 74.2371 341.977 76.5506 345.156 76.1884V76.1884Z"/>
</mask>
<path d="M345.156 76.1884C348.335 75.8262 350.658 72.9384 349.857 69.8409C347.614 61.1664 342.606 53.3944 335.513 47.7523C326.899 40.9006 315.917 37.7513 304.981 38.9973C294.045 40.2433 284.052 45.7824 277.201 54.3962C271.558 61.4892 268.427 70.1886 268.193 79.1454C268.109 82.3437 271.022 84.6349 274.201 84.2727V84.2727C277.38 83.9105 279.604 81.0226 279.861 77.8336C280.334 71.9518 282.541 66.294 286.268 61.6086C291.207 55.3997 298.41 51.407 306.292 50.5088C314.175 49.6107 322.092 51.8808 328.301 56.8196C332.986 60.5465 336.409 65.5627 338.193 71.1874C339.16 74.2371 341.977 76.5506 345.156 76.1884V76.1884Z" stroke="white" stroke-width="2" mask="url(#path-2-outside-2_3_291)"/>
<mask id="path-3-outside-3_3_291" maskUnits="userSpaceOnUse" x="294.564" y="313.38" width="89.4346" height="53.3394" fill="black">
<rect fill="white" x="294.564" y="313.38" width="89.4346" height="53.3394"/>
<path d="M377.08 356.376C380.258 356.013 382.582 353.126 381.781 350.028C379.538 341.354 374.529 333.582 367.436 327.94C358.823 321.088 347.84 317.939 336.904 319.185C325.968 320.431 315.976 325.97 309.124 334.583C303.482 341.676 300.35 350.376 300.116 359.333C300.032 362.531 302.946 364.822 306.125 364.46V364.46C309.303 364.098 311.528 361.21 311.784 358.021C312.257 352.139 314.464 346.481 318.191 341.796C323.13 335.587 330.333 331.594 338.216 330.696C346.098 329.798 354.015 332.068 360.224 337.007C364.909 340.734 368.333 345.75 370.117 351.375C371.084 354.424 373.901 356.738 377.08 356.376V356.376Z"/>
</mask>
<path d="M377.08 356.376C380.258 356.013 382.582 353.126 381.781 350.028C379.538 341.354 374.529 333.582 367.436 327.94C358.823 321.088 347.84 317.939 336.904 319.185C325.968 320.431 315.976 325.97 309.124 334.583C303.482 341.676 300.35 350.376 300.116 359.333C300.032 362.531 302.946 364.822 306.125 364.46V364.46C309.303 364.098 311.528 361.21 311.784 358.021C312.257 352.139 314.464 346.481 318.191 341.796C323.13 335.587 330.333 331.594 338.216 330.696C346.098 329.798 354.015 332.068 360.224 337.007C364.909 340.734 368.333 345.75 370.117 351.375C371.084 354.424 373.901 356.738 377.08 356.376V356.376Z" stroke="white" stroke-width="2" mask="url(#path-3-outside-3_3_291)"/>
<mask id="path-4-outside-4_3_291" maskUnits="userSpaceOnUse" x="30.2095" y="201.587" width="89.4346" height="53.3394" fill="black">
<rect fill="white" x="30.2095" y="201.587" width="89.4346" height="53.3394"/>
<path d="M112.725 244.583C115.904 244.221 118.227 241.333 117.426 238.235C115.183 229.561 110.175 221.789 103.082 216.147C94.468 209.295 83.4852 206.146 72.5495 207.392C61.6138 208.638 51.6209 214.177 44.7692 222.791C39.1271 229.884 35.9956 238.583 35.7615 247.54C35.6778 250.738 38.5911 253.029 41.77 252.667V252.667C44.9488 252.305 47.1731 249.417 47.4295 246.228C47.9024 240.346 50.1096 234.688 53.8365 230.003C58.7753 223.794 65.9784 219.801 73.8611 218.903C81.7438 218.005 89.6604 220.275 95.8693 225.214C100.555 228.941 103.978 233.957 105.762 239.582C106.729 242.632 109.546 244.945 112.725 244.583V244.583Z"/>
</mask>
<path d="M112.725 244.583C115.904 244.221 118.227 241.333 117.426 238.235C115.183 229.561 110.175 221.789 103.082 216.147C94.468 209.295 83.4852 206.146 72.5495 207.392C61.6138 208.638 51.6209 214.177 44.7692 222.791C39.1271 229.884 35.9956 238.583 35.7615 247.54C35.6778 250.738 38.5911 253.029 41.77 252.667V252.667C44.9488 252.305 47.1731 249.417 47.4295 246.228C47.9024 240.346 50.1096 234.688 53.8365 230.003C58.7753 223.794 65.9784 219.801 73.8611 218.903C81.7438 218.005 89.6604 220.275 95.8693 225.214C100.555 228.941 103.978 233.957 105.762 239.582C106.729 242.632 109.546 244.945 112.725 244.583V244.583Z" stroke="white" stroke-width="2" mask="url(#path-4-outside-4_3_291)"/>
<mask id="path-5-outside-5_3_291" maskUnits="userSpaceOnUse" x="14.2479" y="61.4934" width="89.4346" height="53.3394" fill="black">
<rect fill="white" x="14.2479" y="61.4934" width="89.4346" height="53.3394"/>
<path d="M96.7633 104.489C99.9421 104.127 102.265 101.239 101.464 98.1417C99.2214 89.4672 94.2132 81.6952 87.1202 76.0531C78.5064 69.2014 67.5236 66.0521 56.5879 67.2981C45.6521 68.5441 35.6593 74.0832 28.8076 82.697C23.1655 89.79 20.034 98.4894 19.7998 107.446C19.7162 110.644 22.6295 112.936 25.8083 112.573V112.573C28.9871 112.211 31.2115 109.323 31.4679 106.134C31.9408 100.253 34.148 94.5948 37.8749 89.9094C42.8137 83.7005 50.0167 79.7078 57.8994 78.8096C65.7821 77.9115 73.6987 80.1816 79.9077 85.1204C84.5931 88.8473 88.0164 93.8635 89.8003 99.4882C90.7675 102.538 93.5844 104.851 96.7633 104.489V104.489Z"/>
</mask>
<path d="M96.7633 104.489C99.9421 104.127 102.265 101.239 101.464 98.1417C99.2214 89.4672 94.2132 81.6952 87.1202 76.0531C78.5064 69.2014 67.5236 66.0521 56.5879 67.2981C45.6521 68.5441 35.6593 74.0832 28.8076 82.697C23.1655 89.79 20.034 98.4894 19.7998 107.446C19.7162 110.644 22.6295 112.936 25.8083 112.573V112.573C28.9871 112.211 31.2115 109.323 31.4679 106.134C31.9408 100.253 34.148 94.5948 37.8749 89.9094C42.8137 83.7005 50.0167 79.7078 57.8994 78.8096C65.7821 77.9115 73.6987 80.1816 79.9077 85.1204C84.5931 88.8473 88.0164 93.8635 89.8003 99.4882C90.7675 102.538 93.5844 104.851 96.7633 104.489V104.489Z" stroke="white" stroke-width="2" mask="url(#path-5-outside-5_3_291)"/>
<mask id="path-6-outside-6_3_291" maskUnits="userSpaceOnUse" x="46.1711" y="341.681" width="89.4346" height="53.3394" fill="black">
<rect fill="white" x="46.1711" y="341.681" width="89.4346" height="53.3394"/>
<path d="M128.687 384.676C131.865 384.314 134.189 381.426 133.388 378.329C131.145 369.654 126.136 361.882 119.043 356.24C110.43 349.389 99.4469 346.239 88.5112 347.485C77.5754 348.731 67.5826 354.27 60.7309 362.884C55.0888 369.977 51.9573 378.677 51.7231 387.633C51.6395 390.832 54.5528 393.123 57.7316 392.761V392.761C60.9104 392.399 63.1348 389.511 63.3912 386.322C63.8641 380.44 66.0712 374.782 69.7981 370.097C74.737 363.888 81.94 359.895 89.8227 358.997C97.7054 358.099 105.622 360.369 111.831 365.308C116.516 369.035 119.94 374.051 121.724 379.675C122.691 382.725 125.508 385.039 128.687 384.676V384.676Z"/>
</mask>
<path d="M128.687 384.676C131.865 384.314 134.189 381.426 133.388 378.329C131.145 369.654 126.136 361.882 119.043 356.24C110.43 349.389 99.4469 346.239 88.5112 347.485C77.5754 348.731 67.5826 354.27 60.7309 362.884C55.0888 369.977 51.9573 378.677 51.7231 387.633C51.6395 390.832 54.5528 393.123 57.7316 392.761V392.761C60.9104 392.399 63.1348 389.511 63.3912 386.322C63.8641 380.44 66.0712 374.782 69.7981 370.097C74.737 363.888 81.94 359.895 89.8227 358.997C97.7054 358.099 105.622 360.369 111.831 365.308C116.516 369.035 119.94 374.051 121.724 379.675C122.691 382.725 125.508 385.039 128.687 384.676V384.676Z" stroke="white" stroke-width="2" mask="url(#path-6-outside-6_3_291)"/>
<mask id="path-7-outside-7_3_291" maskUnits="userSpaceOnUse" x="386.837" y="19.0422" width="89.4346" height="53.3394" fill="black">
<rect fill="white" x="386.837" y="19.0422" width="89.4346" height="53.3394"/>
<path d="M469.353 62.038C472.532 61.6758 474.855 58.788 474.054 55.6905C471.811 47.016 466.803 39.244 459.71 33.6019C451.096 26.7502 440.113 23.6009 429.177 24.8469C418.242 26.0929 408.249 31.632 401.397 40.2458C395.755 47.3388 392.623 56.0382 392.389 64.995C392.306 68.1933 395.219 70.4845 398.398 70.1223V70.1223C401.577 69.7601 403.801 66.8722 404.057 63.6832C404.53 57.8014 406.737 52.1436 410.464 47.4582C415.403 41.2493 422.606 37.2566 430.489 36.3584C438.372 35.4603 446.288 37.7304 452.497 42.6692C457.183 46.3961 460.606 51.4123 462.39 57.037C463.357 60.0867 466.174 62.4002 469.353 62.038V62.038Z"/>
</mask>
<path d="M469.353 62.038C472.532 61.6758 474.855 58.788 474.054 55.6905C471.811 47.016 466.803 39.244 459.71 33.6019C451.096 26.7502 440.113 23.6009 429.177 24.8469C418.242 26.0929 408.249 31.632 401.397 40.2458C395.755 47.3388 392.623 56.0382 392.389 64.995C392.306 68.1933 395.219 70.4845 398.398 70.1223V70.1223C401.577 69.7601 403.801 66.8722 404.057 63.6832C404.53 57.8014 406.737 52.1436 410.464 47.4582C415.403 41.2493 422.606 37.2566 430.489 36.3584C438.372 35.4603 446.288 37.7304 452.497 42.6692C457.183 46.3961 460.606 51.4123 462.39 57.037C463.357 60.0867 466.174 62.4002 469.353 62.038V62.038Z" stroke="white" stroke-width="2" mask="url(#path-7-outside-7_3_291)"/>
<mask id="path-8-outside-8_3_291" maskUnits="userSpaceOnUse" x="154.406" y="187.437" width="89.4346" height="53.3394" fill="black">
<rect fill="white" x="154.406" y="187.437" width="89.4346" height="53.3394"/>
<path d="M236.921 230.432C240.1 230.07 242.423 227.182 241.623 224.085C239.38 215.41 234.371 207.638 227.278 201.996C218.665 195.145 207.682 191.995 196.746 193.241C185.81 194.487 175.817 200.026 168.966 208.64C163.324 215.733 160.192 224.433 159.958 233.389C159.874 236.588 162.788 238.879 165.966 238.517V238.517C169.145 238.155 171.37 235.267 171.626 232.078C172.099 226.196 174.306 220.538 178.033 215.853C182.972 209.644 190.175 205.651 198.058 204.753C205.94 203.855 213.857 206.125 220.066 211.064C224.751 214.791 228.175 219.807 229.958 225.431C230.926 228.481 233.743 230.795 236.921 230.432V230.432Z"/>
</mask>
<path d="M236.921 230.432C240.1 230.07 242.423 227.182 241.623 224.085C239.38 215.41 234.371 207.638 227.278 201.996C218.665 195.145 207.682 191.995 196.746 193.241C185.81 194.487 175.817 200.026 168.966 208.64C163.324 215.733 160.192 224.433 159.958 233.389C159.874 236.588 162.788 238.879 165.966 238.517V238.517C169.145 238.155 171.37 235.267 171.626 232.078C172.099 226.196 174.306 220.538 178.033 215.853C182.972 209.644 190.175 205.651 198.058 204.753C205.94 203.855 213.857 206.125 220.066 211.064C224.751 214.791 228.175 219.807 229.958 225.431C230.926 228.481 233.743 230.795 236.921 230.432V230.432Z" stroke="white" stroke-width="2" mask="url(#path-8-outside-8_3_291)"/>
<mask id="path-9-outside-9_3_291" maskUnits="userSpaceOnUse" x="138.444" y="47.343" width="89.4346" height="53.3394" fill="black">
<rect fill="white" x="138.444" y="47.343" width="89.4346" height="53.3394"/>
<path d="M220.96 90.3388C224.139 89.9766 226.462 87.0888 225.661 83.9913C223.418 75.3168 218.41 67.5448 211.317 61.9027C202.703 55.051 191.72 51.9017 180.784 53.1477C169.849 54.3937 159.856 59.9328 153.004 68.5466C147.362 75.6396 144.23 84.339 143.996 93.2958C143.913 96.4941 146.826 98.7853 150.005 98.4231V98.4231C153.184 98.0609 155.408 95.173 155.664 91.9839C156.137 86.1022 158.344 80.4444 162.071 75.759C167.01 69.5501 174.213 65.5573 182.096 64.6592C189.979 63.7611 197.895 66.0312 204.104 70.97C208.79 74.6969 212.213 79.7131 213.997 85.3378C214.964 88.3875 217.781 90.701 220.96 90.3388V90.3388Z"/>
</mask>
<path d="M220.96 90.3388C224.139 89.9766 226.462 87.0888 225.661 83.9913C223.418 75.3168 218.41 67.5448 211.317 61.9027C202.703 55.051 191.72 51.9017 180.784 53.1477C169.849 54.3937 159.856 59.9328 153.004 68.5466C147.362 75.6396 144.23 84.339 143.996 93.2958C143.913 96.4941 146.826 98.7853 150.005 98.4231V98.4231C153.184 98.0609 155.408 95.173 155.664 91.9839C156.137 86.1022 158.344 80.4444 162.071 75.759C167.01 69.5501 174.213 65.5573 182.096 64.6592C189.979 63.7611 197.895 66.0312 204.104 70.97C208.79 74.6969 212.213 79.7131 213.997 85.3378C214.964 88.3875 217.781 90.701 220.96 90.3388V90.3388Z" stroke="white" stroke-width="2" mask="url(#path-9-outside-9_3_291)"/>
<mask id="path-10-outside-10_3_291" maskUnits="userSpaceOnUse" x="170.368" y="327.53" width="89.4346" height="53.3394" fill="black">
<rect fill="white" x="170.368" y="327.53" width="89.4346" height="53.3394"/>
<path d="M252.883 370.526C256.062 370.164 258.385 367.276 257.584 364.179C255.341 355.504 250.333 347.732 243.24 342.09C234.626 335.238 223.643 332.089 212.708 333.335C201.772 334.581 191.779 340.12 184.927 348.734C179.285 355.827 176.154 364.526 175.92 373.483C175.836 376.681 178.749 378.973 181.928 378.61V378.61C185.107 378.248 187.331 375.36 187.588 372.171C188.061 366.289 190.268 360.632 193.995 355.946C198.933 349.737 206.137 345.745 214.019 344.847C221.902 343.948 229.819 346.218 236.027 351.157C240.713 354.884 244.136 359.9 245.92 365.525C246.887 368.575 249.704 370.888 252.883 370.526V370.526Z"/>
</mask>
<path d="M252.883 370.526C256.062 370.164 258.385 367.276 257.584 364.179C255.341 355.504 250.333 347.732 243.24 342.09C234.626 335.238 223.643 332.089 212.708 333.335C201.772 334.581 191.779 340.12 184.927 348.734C179.285 355.827 176.154 364.526 175.92 373.483C175.836 376.681 178.749 378.973 181.928 378.61V378.61C185.107 378.248 187.331 375.36 187.588 372.171C188.061 366.289 190.268 360.632 193.995 355.946C198.933 349.737 206.137 345.745 214.019 344.847C221.902 343.948 229.819 346.218 236.027 351.157C240.713 354.884 244.136 359.9 245.92 365.525C246.887 368.575 249.704 370.888 252.883 370.526V370.526Z" stroke="white" stroke-width="2" mask="url(#path-10-outside-10_3_291)"/>
<mask id="path-11-outside-11_3_291" maskUnits="userSpaceOnUse" x="296.899" y="-37.1377" width="89.4346" height="53.3394" fill="black">
<rect fill="white" x="296.899" y="-37.1377" width="89.4346" height="53.3394"/>
<path d="M303.819 -26.794C300.64 -26.4319 298.317 -23.544 299.117 -20.4465C301.36 -11.772 306.369 -4 313.462 1.64206C322.075 8.49376 333.058 11.643 343.994 10.3971C354.93 9.15108 364.923 3.61195 371.774 -5.00182C377.416 -12.0949 380.548 -20.7943 380.782 -29.751C380.866 -32.9493 377.952 -35.2405 374.774 -34.8783V-34.8783C371.595 -34.5161 369.37 -31.6283 369.114 -28.4392C368.641 -22.5574 366.434 -16.8996 362.707 -12.2143C357.768 -6.00531 350.565 -2.01259 342.682 -1.11447C334.8 -0.216351 326.883 -2.4864 320.674 -7.42524C315.989 -11.1521 312.565 -16.1684 310.782 -21.793C309.814 -24.8427 306.997 -27.1562 303.819 -26.794V-26.794Z"/>
</mask>
<path d="M303.819 -26.794C300.64 -26.4319 298.317 -23.544 299.117 -20.4465C301.36 -11.772 306.369 -4 313.462 1.64206C322.075 8.49376 333.058 11.643 343.994 10.3971C354.93 9.15108 364.923 3.61195 371.774 -5.00182C377.416 -12.0949 380.548 -20.7943 380.782 -29.751C380.866 -32.9493 377.952 -35.2405 374.774 -34.8783V-34.8783C371.595 -34.5161 369.37 -31.6283 369.114 -28.4392C368.641 -22.5574 366.434 -16.8996 362.707 -12.2143C357.768 -6.00531 350.565 -2.01259 342.682 -1.11447C334.8 -0.216351 326.883 -2.4864 320.674 -7.42524C315.989 -11.1521 312.565 -16.1684 310.782 -21.793C309.814 -24.8427 306.997 -27.1562 303.819 -26.794V-26.794Z" stroke="white" stroke-width="2" mask="url(#path-11-outside-11_3_291)"/>
<mask id="path-12-outside-12_3_291" maskUnits="userSpaceOnUse" x="328.823" y="243.05" width="89.4346" height="53.3394" fill="black">
<rect fill="white" x="328.823" y="243.05" width="89.4346" height="53.3394"/>
<path d="M335.742 253.393C332.563 253.755 330.24 256.643 331.041 259.741C333.284 268.415 338.292 276.187 345.385 281.829C353.999 288.681 364.982 291.83 375.917 290.584C386.853 289.338 396.846 283.799 403.698 275.185C409.34 268.092 412.471 259.393 412.705 250.436C412.789 247.238 409.876 244.947 406.697 245.309V245.309C403.518 245.671 401.294 248.559 401.037 251.748C400.564 257.63 398.357 263.288 394.63 267.973C389.691 274.182 382.488 278.175 374.606 279.073C366.723 279.971 358.806 277.701 352.597 272.762C347.912 269.035 344.489 264.019 342.705 258.394C341.738 255.345 338.921 253.031 335.742 253.393V253.393Z"/>
</mask>
<path d="M335.742 253.393C332.563 253.755 330.24 256.643 331.041 259.741C333.284 268.415 338.292 276.187 345.385 281.829C353.999 288.681 364.982 291.83 375.917 290.584C386.853 289.338 396.846 283.799 403.698 275.185C409.34 268.092 412.471 259.393 412.705 250.436C412.789 247.238 409.876 244.947 406.697 245.309V245.309C403.518 245.671 401.294 248.559 401.037 251.748C400.564 257.63 398.357 263.288 394.63 267.973C389.691 274.182 382.488 278.175 374.606 279.073C366.723 279.971 358.806 277.701 352.597 272.762C347.912 269.035 344.489 264.019 342.705 258.394C341.738 255.345 338.921 253.031 335.742 253.393V253.393Z" stroke="white" stroke-width="2" mask="url(#path-12-outside-12_3_291)"/>
<mask id="path-13-outside-13_3_291" maskUnits="userSpaceOnUse" x="312.861" y="102.956" width="89.4346" height="53.3394" fill="black">
<rect fill="white" x="312.861" y="102.956" width="89.4346" height="53.3394"/>
<path d="M319.78 113.3C316.601 113.662 314.278 116.55 315.079 119.647C317.322 128.322 322.33 136.094 329.423 141.736C338.037 148.587 349.02 151.737 359.956 150.491C370.891 149.245 380.884 143.706 387.736 135.092C393.378 127.999 396.51 119.299 396.744 110.343C396.827 107.144 393.914 104.853 390.735 105.215V105.215C387.556 105.577 385.332 108.465 385.076 111.654C384.603 117.536 382.396 123.194 378.669 127.879C373.73 134.088 366.527 138.081 358.644 138.979C350.761 139.877 342.845 137.607 336.636 132.668C331.95 128.941 328.527 123.925 326.743 118.301C325.776 115.251 322.959 112.937 319.78 113.3V113.3Z"/>
</mask>
<path d="M319.78 113.3C316.601 113.662 314.278 116.55 315.079 119.647C317.322 128.322 322.33 136.094 329.423 141.736C338.037 148.587 349.02 151.737 359.956 150.491C370.891 149.245 380.884 143.706 387.736 135.092C393.378 127.999 396.51 119.299 396.744 110.343C396.827 107.144 393.914 104.853 390.735 105.215V105.215C387.556 105.577 385.332 108.465 385.076 111.654C384.603 117.536 382.396 123.194 378.669 127.879C373.73 134.088 366.527 138.081 358.644 138.979C350.761 139.877 342.845 137.607 336.636 132.668C331.95 128.941 328.527 123.925 326.743 118.301C325.776 115.251 322.959 112.937 319.78 113.3V113.3Z" stroke="white" stroke-width="2" mask="url(#path-13-outside-13_3_291)"/>
<mask id="path-14-outside-14_3_291" maskUnits="userSpaceOnUse" x="48.5065" y="-8.83687" width="89.4346" height="53.3394" fill="black">
<rect fill="white" x="48.5065" y="-8.83687" width="89.4346" height="53.3394"/>
<path d="M55.4256 1.50677C52.2468 1.86895 49.9235 4.75679 50.7245 7.8543C52.9675 16.5288 57.9757 24.3008 65.0687 29.9429C73.6825 36.7946 84.6653 39.9438 95.601 38.6979C106.537 37.4519 116.53 31.9127 123.381 23.299C129.023 16.206 132.155 7.50654 132.389 -1.4502C132.473 -4.64849 129.559 -6.9397 126.381 -6.57752V-6.57752C123.202 -6.21534 120.977 -3.32748 120.721 -0.138383C120.248 5.74341 118.041 11.4012 114.314 16.0865C109.375 22.2955 102.172 26.2882 94.2894 27.1863C86.4067 28.0845 78.4901 25.8144 72.2812 20.8756C67.5958 17.1487 64.1725 12.1324 62.3886 6.50776C61.4213 3.45808 58.6044 1.14459 55.4256 1.50677V1.50677Z"/>
</mask>
<path d="M55.4256 1.50677C52.2468 1.86895 49.9235 4.75679 50.7245 7.8543C52.9675 16.5288 57.9757 24.3008 65.0687 29.9429C73.6825 36.7946 84.6653 39.9438 95.601 38.6979C106.537 37.4519 116.53 31.9127 123.381 23.299C129.023 16.206 132.155 7.50654 132.389 -1.4502C132.473 -4.64849 129.559 -6.9397 126.381 -6.57752V-6.57752C123.202 -6.21534 120.977 -3.32748 120.721 -0.138383C120.248 5.74341 118.041 11.4012 114.314 16.0865C109.375 22.2955 102.172 26.2882 94.2894 27.1863C86.4067 28.0845 78.4901 25.8144 72.2812 20.8756C67.5958 17.1487 64.1725 12.1324 62.3886 6.50776C61.4213 3.45808 58.6044 1.14459 55.4256 1.50677V1.50677Z" stroke="white" stroke-width="2" mask="url(#path-14-outside-14_3_291)"/>
<mask id="path-15-outside-15_3_291" maskUnits="userSpaceOnUse" x="80.4298" y="271.35" width="89.4346" height="53.3394" fill="black">
<rect fill="white" x="80.4298" y="271.35" width="89.4346" height="53.3394"/>
<path d="M87.3489 281.694C84.1701 282.056 81.8469 284.944 82.6478 288.042C84.8908 296.716 89.899 304.488 96.992 310.13C105.606 316.982 116.589 320.131 127.524 318.885C138.46 317.639 148.453 312.1 155.305 303.486C160.947 296.393 164.078 287.694 164.312 278.737C164.396 275.539 161.483 273.248 158.304 273.61V273.61C155.125 273.972 152.901 276.86 152.644 280.049C152.171 285.931 149.964 291.588 146.237 296.274C141.298 302.483 134.095 306.475 126.213 307.374C118.33 308.272 110.413 306.002 104.204 301.063C99.5191 297.336 96.0958 292.32 94.3119 286.695C93.3447 283.645 90.5277 281.332 87.3489 281.694V281.694Z"/>
</mask>
<path d="M87.3489 281.694C84.1701 282.056 81.8469 284.944 82.6478 288.042C84.8908 296.716 89.899 304.488 96.992 310.13C105.606 316.982 116.589 320.131 127.524 318.885C138.46 317.639 148.453 312.1 155.305 303.486C160.947 296.393 164.078 287.694 164.312 278.737C164.396 275.539 161.483 273.248 158.304 273.61V273.61C155.125 273.972 152.901 276.86 152.644 280.049C152.171 285.931 149.964 291.588 146.237 296.274C141.298 302.483 134.095 306.475 126.213 307.374C118.33 308.272 110.413 306.002 104.204 301.063C99.5191 297.336 96.0958 292.32 94.3119 286.695C93.3447 283.645 90.5277 281.332 87.3489 281.694V281.694Z" stroke="white" stroke-width="2" mask="url(#path-15-outside-15_3_291)"/>
<mask id="path-16-outside-16_3_291" maskUnits="userSpaceOnUse" x="64.4681" y="131.257" width="89.4346" height="53.3394" fill="black">
<rect fill="white" x="64.4681" y="131.257" width="89.4346" height="53.3394"/>
<path d="M71.3872 141.6C68.2084 141.963 65.8852 144.85 66.6861 147.948C68.9291 156.622 73.9373 164.394 81.0304 170.036C89.6441 176.888 100.627 180.037 111.563 178.791C122.498 177.546 132.491 172.006 139.343 163.393C144.985 156.3 148.117 147.6 148.351 138.643C148.434 135.445 145.521 133.154 142.342 133.516V133.516C139.163 133.878 136.939 136.766 136.683 139.955C136.21 145.837 134.003 151.495 130.276 156.18C125.337 162.389 118.134 166.382 110.251 167.28C102.368 168.178 94.4518 165.908 88.2428 160.969C83.5575 157.242 80.1341 152.226 78.3502 146.601C77.383 143.552 74.5661 141.238 71.3872 141.6V141.6Z"/>
</mask>
<path d="M71.3872 141.6C68.2084 141.963 65.8852 144.85 66.6861 147.948C68.9291 156.622 73.9373 164.394 81.0304 170.036C89.6441 176.888 100.627 180.037 111.563 178.791C122.498 177.546 132.491 172.006 139.343 163.393C144.985 156.3 148.117 147.6 148.351 138.643C148.434 135.445 145.521 133.154 142.342 133.516V133.516C139.163 133.878 136.939 136.766 136.683 139.955C136.21 145.837 134.003 151.495 130.276 156.18C125.337 162.389 118.134 166.382 110.251 167.28C102.368 168.178 94.4518 165.908 88.2428 160.969C83.5575 157.242 80.1341 152.226 78.3502 146.601C77.383 143.552 74.5661 141.238 71.3872 141.6V141.6Z" stroke="white" stroke-width="2" mask="url(#path-16-outside-16_3_291)"/>
<mask id="path-17-outside-17_3_291" maskUnits="userSpaceOnUse" x="-75.69" y="5.31353" width="89.4346" height="53.3394" fill="black">
<rect fill="white" x="-75.69" y="5.31353" width="89.4346" height="53.3394"/>
<path d="M-68.7709 15.6572C-71.9497 16.0194 -74.2729 18.9072 -73.472 22.0047C-71.229 30.6792 -66.2208 38.4512 -59.1278 44.0933C-50.514 50.945 -39.5312 54.0942 -28.5955 52.8483C-17.6598 51.6023 -7.66689 46.0631 -0.815189 37.4494C4.82687 30.3564 7.95839 21.6569 8.19255 12.7002C8.27617 9.5019 5.36287 7.2107 2.18405 7.57288V7.57288C-0.994772 7.93506 -3.21909 10.8229 -3.47549 14.012C-3.94839 19.8938 -6.15558 25.5516 -9.88249 30.2369C-14.8213 36.4459 -22.0244 40.4386 -29.9071 41.3367C-37.7898 42.2349 -45.7064 39.9648 -51.9153 35.026C-56.6007 31.2991 -60.024 26.2828 -61.8079 20.6582C-62.7751 17.6085 -65.5921 15.295 -68.7709 15.6572V15.6572Z"/>
</mask>
<path d="M-68.7709 15.6572C-71.9497 16.0194 -74.2729 18.9072 -73.472 22.0047C-71.229 30.6792 -66.2208 38.4512 -59.1278 44.0933C-50.514 50.945 -39.5312 54.0942 -28.5955 52.8483C-17.6598 51.6023 -7.66689 46.0631 -0.815189 37.4494C4.82687 30.3564 7.95839 21.6569 8.19255 12.7002C8.27617 9.5019 5.36287 7.2107 2.18405 7.57288V7.57288C-0.994772 7.93506 -3.21909 10.8229 -3.47549 14.012C-3.94839 19.8938 -6.15558 25.5516 -9.88249 30.2369C-14.8213 36.4459 -22.0244 40.4386 -29.9071 41.3367C-37.7898 42.2349 -45.7064 39.9648 -51.9153 35.026C-56.6007 31.2991 -60.024 26.2828 -61.8079 20.6582C-62.7751 17.6085 -65.5921 15.295 -68.7709 15.6572V15.6572Z" stroke="white" stroke-width="2" mask="url(#path-17-outside-17_3_291)"/>
<mask id="path-18-outside-18_3_291" maskUnits="userSpaceOnUse" x="-43.7667" y="285.501" width="89.4346" height="53.3394" fill="black">
<rect fill="white" x="-43.7667" y="285.501" width="89.4346" height="53.3394"/>
<path d="M-36.8476 295.844C-40.0264 296.207 -42.3496 299.094 -41.5487 302.192C-39.3057 310.866 -34.2975 318.638 -27.2045 324.281C-18.5907 331.132 -7.60792 334.281 3.32781 333.036C14.2635 331.79 24.2564 326.25 31.1081 317.637C36.7502 310.544 39.8817 301.844 40.1159 292.887C40.1995 289.689 37.2862 287.398 34.1074 287.76V287.76C30.9285 288.122 28.7042 291.01 28.4478 294.199C27.9749 300.081 25.7677 305.739 22.0408 310.424C17.102 316.633 9.89893 320.626 2.01624 321.524C-5.86644 322.422 -13.7831 320.152 -19.992 315.213C-24.6774 311.486 -28.1007 306.47 -29.8846 300.845C-30.8518 297.796 -33.6688 295.482 -36.8476 295.844V295.844Z"/>
</mask>
<path d="M-36.8476 295.844C-40.0264 296.207 -42.3496 299.094 -41.5487 302.192C-39.3057 310.866 -34.2975 318.638 -27.2045 324.281C-18.5907 331.132 -7.60792 334.281 3.32781 333.036C14.2635 331.79 24.2564 326.25 31.1081 317.637C36.7502 310.544 39.8817 301.844 40.1159 292.887C40.1995 289.689 37.2862 287.398 34.1074 287.76V287.76C30.9285 288.122 28.7042 291.01 28.4478 294.199C27.9749 300.081 25.7677 305.739 22.0408 310.424C17.102 316.633 9.89893 320.626 2.01624 321.524C-5.86644 322.422 -13.7831 320.152 -19.992 315.213C-24.6774 311.486 -28.1007 306.47 -29.8846 300.845C-30.8518 297.796 -33.6688 295.482 -36.8476 295.844V295.844Z" stroke="white" stroke-width="2" mask="url(#path-18-outside-18_3_291)"/>
<mask id="path-19-outside-19_3_291" maskUnits="userSpaceOnUse" x="-59.7284" y="145.407" width="89.4346" height="53.3394" fill="black">
<rect fill="white" x="-59.7284" y="145.407" width="89.4346" height="53.3394"/>
<path d="M-52.8092 155.751C-55.9881 156.113 -58.3113 159.001 -57.5104 162.098C-55.2674 170.773 -50.2592 178.545 -43.1661 184.187C-34.5524 191.039 -23.5696 194.188 -12.6338 192.942C-1.69811 191.696 8.29477 186.157 15.1465 177.543C20.7885 170.45 23.92 161.751 24.1542 152.794C24.2378 149.596 21.3245 147.304 18.1457 147.667V147.667C14.9669 148.029 12.7426 150.917 12.4862 154.106C12.0133 159.987 9.80607 165.645 6.07917 170.331C1.14033 176.54 -6.06272 180.532 -13.9454 181.43C-21.8281 182.328 -29.7447 180.058 -35.9537 175.12C-40.639 171.393 -44.0624 166.376 -45.8463 160.752C-46.8135 157.702 -49.6304 155.389 -52.8092 155.751V155.751Z"/>
</mask>
<path d="M-52.8092 155.751C-55.9881 156.113 -58.3113 159.001 -57.5104 162.098C-55.2674 170.773 -50.2592 178.545 -43.1661 184.187C-34.5524 191.039 -23.5696 194.188 -12.6338 192.942C-1.69811 191.696 8.29477 186.157 15.1465 177.543C20.7885 170.45 23.92 161.751 24.1542 152.794C24.2378 149.596 21.3245 147.304 18.1457 147.667V147.667C14.9669 148.029 12.7426 150.917 12.4862 154.106C12.0133 159.987 9.80607 165.645 6.07917 170.331C1.14033 176.54 -6.06272 180.532 -13.9454 181.43C-21.8281 182.328 -29.7447 180.058 -35.9537 175.12C-40.639 171.393 -44.0624 166.376 -45.8463 160.752C-46.8135 157.702 -49.6304 155.389 -52.8092 155.751V155.751Z" stroke="white" stroke-width="2" mask="url(#path-19-outside-19_3_291)"/>
<mask id="path-20-outside-20_3_291" maskUnits="userSpaceOnUse" x="172.703" y="-22.9873" width="89.4346" height="53.3394" fill="black">
<rect fill="white" x="172.703" y="-22.9873" width="89.4346" height="53.3394"/>
<path d="M179.622 -12.6436C176.443 -12.2815 174.12 -9.39362 174.921 -6.29611C177.164 2.37839 182.172 10.1504 189.265 15.7925C197.879 22.6442 208.862 25.7934 219.797 24.5475C230.733 23.3015 240.726 17.7623 247.578 9.14858C253.22 2.05555 256.351 -6.64387 256.586 -15.6006C256.669 -18.7989 253.756 -21.0901 250.577 -20.7279V-20.7279C247.398 -20.3657 245.174 -17.4779 244.917 -14.2888C244.445 -8.40699 242.237 -2.74923 238.51 1.93613C233.572 8.14509 226.369 12.1378 218.486 13.0359C210.603 13.934 202.687 11.664 196.478 6.72516C191.792 2.99826 188.369 -2.01798 186.585 -7.64265C185.618 -10.6923 182.801 -13.0058 179.622 -12.6436V-12.6436Z"/>
</mask>
<path d="M179.622 -12.6436C176.443 -12.2815 174.12 -9.39362 174.921 -6.29611C177.164 2.37839 182.172 10.1504 189.265 15.7925C197.879 22.6442 208.862 25.7934 219.797 24.5475C230.733 23.3015 240.726 17.7623 247.578 9.14858C253.22 2.05555 256.351 -6.64387 256.586 -15.6006C256.669 -18.7989 253.756 -21.0901 250.577 -20.7279V-20.7279C247.398 -20.3657 245.174 -17.4779 244.917 -14.2888C244.445 -8.40699 242.237 -2.74923 238.51 1.93613C233.572 8.14509 226.369 12.1378 218.486 13.0359C210.603 13.934 202.687 11.664 196.478 6.72516C191.792 2.99826 188.369 -2.01798 186.585 -7.64265C185.618 -10.6923 182.801 -13.0058 179.622 -12.6436V-12.6436Z" stroke="white" stroke-width="2" mask="url(#path-20-outside-20_3_291)"/>
<mask id="path-21-outside-21_3_291" maskUnits="userSpaceOnUse" x="204.626" y="257.2" width="89.4346" height="53.3394" fill="black">
<rect fill="white" x="204.626" y="257.2" width="89.4346" height="53.3394"/>
<path d="M211.545 267.544C208.367 267.906 206.043 270.794 206.844 273.891C209.087 282.566 214.095 290.338 221.188 295.98C229.802 302.831 240.785 305.981 251.721 304.735C262.657 303.489 272.649 297.95 279.501 289.336C285.143 282.243 288.275 273.543 288.509 264.587C288.592 261.388 285.679 259.097 282.5 259.459V259.459C279.322 259.822 277.097 262.709 276.841 265.898C276.368 271.78 274.161 277.438 270.434 282.123C265.495 288.332 258.292 292.325 250.409 293.223C242.527 294.121 234.61 291.851 228.401 286.912C223.716 283.186 220.292 278.169 218.508 272.545C217.541 269.495 214.724 267.181 211.545 267.544V267.544Z"/>
</mask>
<path d="M211.545 267.544C208.367 267.906 206.043 270.794 206.844 273.891C209.087 282.566 214.095 290.338 221.188 295.98C229.802 302.831 240.785 305.981 251.721 304.735C262.657 303.489 272.649 297.95 279.501 289.336C285.143 282.243 288.275 273.543 288.509 264.587C288.592 261.388 285.679 259.097 282.5 259.459V259.459C279.322 259.822 277.097 262.709 276.841 265.898C276.368 271.78 274.161 277.438 270.434 282.123C265.495 288.332 258.292 292.325 250.409 293.223C242.527 294.121 234.61 291.851 228.401 286.912C223.716 283.186 220.292 278.169 218.508 272.545C217.541 269.495 214.724 267.181 211.545 267.544V267.544Z" stroke="white" stroke-width="2" mask="url(#path-21-outside-21_3_291)"/>
<mask id="path-22-outside-22_3_291" maskUnits="userSpaceOnUse" x="188.665" y="117.106" width="89.4346" height="53.3394" fill="black">
<rect fill="white" x="188.665" y="117.106" width="89.4346" height="53.3394"/>
<path d="M195.584 127.45C192.405 127.812 190.082 130.7 190.883 133.798C193.126 142.472 198.134 150.244 205.227 155.886C213.841 162.738 224.823 165.887 235.759 164.641C246.695 163.395 256.688 157.856 263.539 149.242C269.181 142.149 272.313 133.45 272.547 124.493C272.631 121.295 269.717 119.004 266.539 119.366V119.366C263.36 119.728 261.136 122.616 260.879 125.805C260.406 131.687 258.199 137.344 254.472 142.03C249.533 148.239 242.33 152.231 234.448 153.13C226.565 154.028 218.648 151.758 212.439 146.819C207.754 143.092 204.331 138.076 202.547 132.451C201.579 129.401 198.763 127.088 195.584 127.45V127.45Z"/>
</mask>
<path d="M195.584 127.45C192.405 127.812 190.082 130.7 190.883 133.798C193.126 142.472 198.134 150.244 205.227 155.886C213.841 162.738 224.823 165.887 235.759 164.641C246.695 163.395 256.688 157.856 263.539 149.242C269.181 142.149 272.313 133.45 272.547 124.493C272.631 121.295 269.717 119.004 266.539 119.366V119.366C263.36 119.728 261.136 122.616 260.879 125.805C260.406 131.687 258.199 137.344 254.472 142.03C249.533 148.239 242.33 152.231 234.448 153.13C226.565 154.028 218.648 151.758 212.439 146.819C207.754 143.092 204.331 138.076 202.547 132.451C201.579 129.401 198.763 127.088 195.584 127.45V127.45Z" stroke="white" stroke-width="2" mask="url(#path-22-outside-22_3_291)"/>
</svg>
