<svg width="41" height="40" viewBox="0 0 41 40" fill="none" xmlns="http://www.w3.org/2000/svg">
<path d="M39.1562 10.7656C39.0606 10.5381 38.8998 10.344 38.694 10.2078C38.4883 10.0715 38.2468 9.99923 38 10H33.25C32.68 9.0055 31.8887 8.15555 30.9374 7.51598C29.9862 6.8764 28.9004 6.46437 27.7644 6.31178C26.6283 6.1592 25.4723 6.27016 24.386 6.63607C23.2997 7.00198 22.3122 7.61302 21.5 8.42187C20.7888 9.11526 20.2235 9.94379 19.8371 10.8588C19.4507 11.7738 19.2511 12.7568 19.25 13.75V14.7031C12.8906 13.0469 7.68749 7.92187 7.64061 7.85937C7.47717 7.69857 7.27265 7.58583 7.04943 7.53347C6.82621 7.48111 6.59289 7.49115 6.37499 7.5625C6.15778 7.63162 5.96328 7.75812 5.81202 7.92864C5.66075 8.09915 5.55835 8.30735 5.51561 8.53125C4.15624 16.0625 6.42186 21.1094 8.56249 24.0156C9.63616 25.4852 10.9393 26.7725 12.4219 27.8281C10.0312 30.5312 6.34374 31.9375 6.31249 31.9531C6.13615 32.0185 5.97685 32.1229 5.84644 32.2584C5.71603 32.3939 5.61789 32.5571 5.55931 32.7358C5.50074 32.9145 5.48325 33.1042 5.50815 33.2906C5.53305 33.477 5.59969 33.6554 5.70311 33.8125C5.82811 34 6.29686 34.6094 7.43749 35.1875C8.85936 35.8906 10.7344 36.25 13 36.25C24.0156 36.25 33.2344 27.7656 34.1719 16.8437L38.8906 12.1406C39.0602 11.9599 39.1751 11.7348 39.2221 11.4915C39.2691 11.2482 39.2463 10.9965 39.1562 10.7656ZM32.0781 15.4062C31.8604 15.6222 31.732 15.9123 31.7187 16.2187C31.0781 26.0469 22.8594 33.75 13 33.75C11.3437 33.75 10.1875 33.5312 9.37499 33.2656C11.1719 32.2969 13.6719 30.6094 15.2969 28.1875C15.3912 28.0409 15.4538 27.8762 15.4807 27.704C15.5076 27.5318 15.4982 27.3559 15.4531 27.1875C15.4076 27.0174 15.3272 26.8587 15.2169 26.7215C15.1065 26.5843 14.9688 26.4716 14.8125 26.3906C14.7969 26.375 12.4844 25.1719 10.5 22.4375C8.24999 19.3437 7.29686 15.5781 7.67186 11.2344C10.1406 13.2656 14.8594 16.5781 20.2969 17.4844C20.4764 17.5132 20.6601 17.503 20.8353 17.4545C21.0106 17.406 21.1733 17.3202 21.3125 17.2031C21.4485 17.0841 21.5578 16.9376 21.6332 16.7734C21.7086 16.6091 21.7484 16.4307 21.75 16.25V13.75C21.7523 12.6031 22.1488 11.4919 22.8731 10.6026C23.5974 9.71338 24.6053 9.10013 25.728 8.8657C26.8506 8.63128 28.0198 8.78993 29.0394 9.31507C30.059 9.8402 30.867 10.6999 31.3281 11.75C31.4278 11.9734 31.59 12.1631 31.7952 12.2962C32.0004 12.4293 32.2398 12.5001 32.4844 12.5H34.9844L32.0781 15.4062Z" fill="current" stroke="current"/>
</svg>
