<svg width="100" height="100" viewBox="0 0 100 100" fill="none" xmlns="http://www.w3.org/2000/svg">
<path d="M100 50C100 77.6142 77.6142 100 50 100C22.3858 100 0 77.6142 0 50C0 22.3858 22.3858 0 50 0C77.6142 0 100 22.3858 100 50Z" fill="#FF9505"/>
<path d="M47.4894 98.9641L47.7305 91.0994L44.1517 90.3716L41.7131 97.3404L41.2819 97.2527L41.7587 89.885L38.1799 89.1572L35.3302 96.4914L37.001 96.8312L39.666 89.9084L40.0972 89.9961L39.5773 97.3551L43.2423 98.1004L45.6378 91.1228L46.069 91.2105L45.8186 98.6243L47.4894 98.9641Z" fill="#190B28"/>
<path d="M31.5431 86.1015L26.8706 83.1381L26.0458 84.4386L29.2321 86.4594L28.3896 87.7877L25.6678 86.0615L24.843 87.362L27.5648 89.0882L26.7282 90.4073L23.542 88.3865L22.7172 89.687L27.3897 92.6504L31.5431 86.1015Z" fill="#190B28"/>
<path d="M21.4742 78.1931L18.3875 74.7982L17.2235 75.8066L19.7773 78.5862L14.9968 82.7279L16.1493 84.0581L21.3953 79.5131C21.8525 79.1169 21.8787 78.6431 21.4742 78.1931Z" fill="#190B28"/>
<path d="M11.3197 71.0635C13.4087 70.1854 14.4124 68.1167 13.4576 65.8453C12.6178 63.8476 10.9684 62.9897 9.10435 63.5228L9.7864 65.1453C10.7977 64.9111 11.6201 65.4483 12.0294 66.4218C12.5537 67.6691 12.1182 68.8187 10.6377 69.4411C9.16733 70.0592 8.04122 69.566 7.51689 68.3188C7.10766 67.3453 7.28908 66.386 8.16394 65.8273L7.48188 64.2049C5.80697 65.1595 5.26597 66.9382 6.10576 68.9358C7.06064 71.2073 9.24096 71.9374 11.3197 71.0635Z" fill="#190B28"/>
<path d="M6.54278 56.5702C8.80643 56.4671 10.4636 54.8941 10.3514 52.4326C10.2398 49.9822 8.44651 48.5663 6.18286 48.6694C3.9302 48.772 2.27307 50.3451 2.3847 52.7955C2.49683 55.257 4.29012 56.6728 6.54278 56.5702ZM6.46269 54.812C4.97923 54.8796 3.98968 54.1869 3.9231 52.7255C3.85652 51.264 4.77949 50.4952 6.26295 50.4276C7.75741 50.3595 8.74645 51.0412 8.81303 52.5027C8.87961 53.9642 7.95714 54.744 6.46269 54.812Z" fill="#190B28"/>
<path d="M10.8228 41.3847L11.3952 39.7204L5.51797 37.6993L4.37044 37.6537L4.51353 37.2376L11.8352 38.4409L12.9441 35.2163L6.43085 31.6621L6.57393 31.246L7.50683 31.9158L13.384 33.9368L13.9564 32.2725L6.62287 29.7506L5.49608 33.0273L12.0451 36.4775L11.902 36.8936L4.61612 35.5862L3.48934 38.8629L10.8228 41.3847Z" fill="#190B28"/>
<path d="M17.2772 26.9024L20.7195 22.5706L19.5139 21.6125L17.1665 24.5663L15.935 23.5877L17.9402 21.0644L16.7346 20.1063L14.7294 22.6296L13.5065 21.6578L15.8539 18.7039L14.6482 17.7458L11.2058 22.0776L17.2772 26.9024Z" fill="#190B28"/>
<path d="M31.6553 9.92375L32.1409 11.1512L37.6643 8.96593L37.1787 7.7385L31.6553 9.92375Z" fill="#190B28"/>
<path d="M55.4356 1.2869L55.052 9.14594L58.617 9.93846L61.1816 3.015L61.6111 3.11049L61.0008 10.4684L64.5658 11.2609L67.5479 3.97956L65.8836 3.60956L63.0935 10.4829L62.664 10.3874L63.3172 3.03904L59.6664 2.22742L57.1447 9.16042L56.7152 9.06494L57.1 1.6569L55.4356 1.2869Z" fill="#190B28"/>
<path d="M71.146 14.4365L75.764 17.4841L76.6123 16.1988L73.4632 14.1206L74.3296 12.8077L77.0197 14.5829L77.8679 13.2976L75.1779 11.5223L76.0383 10.2186L79.1873 12.2969L80.0356 11.0115L75.4175 7.96389L71.146 14.4365Z" fill="#190B28"/>
<path d="M81.07 22.5261L84.0947 25.9763L85.2767 24.9892L82.7738 22.1638L87.6285 18.1095L86.5003 16.7586L81.1728 21.2078C80.7084 21.5956 80.6737 22.0688 81.07 22.5261Z" fill="#190B28"/>
<path d="M91.0935 29.8385C88.989 30.6787 87.9479 32.7288 88.8615 35.0172C89.6649 37.0297 91.2984 37.9174 93.1719 37.4182L92.5193 35.7836C91.504 35.9994 90.6914 35.4474 90.2999 34.4666C89.7982 33.2101 90.2545 32.0685 91.7461 31.4731C93.2274 30.8817 94.3444 31.3952 94.846 32.6518C95.2375 33.6325 95.0387 34.5883 94.1539 35.1311L94.8064 36.7657C96.4984 35.8415 97.0715 34.0729 96.2681 32.0604C95.3545 29.772 93.1878 29.0025 91.0935 29.8385Z" fill="#190B28"/>
<path d="M95.6069 44.4161C93.3418 44.4782 91.6564 46.0209 91.7239 48.484C91.7911 50.9361 93.5584 52.3842 95.8236 52.3221C98.0777 52.2604 99.7631 50.7176 99.6959 48.2655C99.6284 45.8025 97.8611 44.3543 95.6069 44.4161ZM95.6552 46.1754C97.1396 46.1348 98.1164 46.8453 98.1565 48.3077C98.1966 49.7702 97.2598 50.5221 95.7754 50.5628C94.2799 50.6038 93.3034 49.9043 93.2633 48.4418C93.2233 46.9794 94.1597 46.2164 95.6552 46.1754Z" fill="#190B28"/>
<path d="M91.0523 59.5215L90.4499 61.1752L96.2895 63.3025L97.436 63.3689L97.2854 63.7824L89.9868 62.4465L88.8196 65.6505L95.2673 69.3222L95.1167 69.7357L94.1961 69.0491L88.3565 66.9218L87.7541 68.5755L95.0407 71.2299L96.2267 67.9742L89.7413 64.4058L89.8919 63.9924L97.1529 65.4316L98.3389 62.1759L91.0523 59.5215Z" fill="#190B28"/>
<path d="M84.3365 73.8845L80.8161 78.1531L82.0042 79.133L84.4048 76.2221L85.6183 77.2229L83.5677 79.7095L84.7558 80.6893L86.8064 78.2028L88.0115 79.1966L85.6109 82.1074L86.799 83.0872L90.3193 78.8186L84.3365 73.8845Z" fill="#190B28"/>
<path d="M69.6529 90.5996L69.1896 89.3636L63.6275 91.4484L64.0908 92.6844L69.6529 90.5996Z" fill="#190B28"/>
</svg>
